<svg xmlns="http://www.w3.org/2000/svg" xmlns:xlink="http://www.w3.org/1999/xlink" xml:space="preserve" id="testing" x="0" y="0" version="1.1" viewBox="0 0 1920 1080" enable-background="new 0 0 1920 1080">
  <path d="M326.9 269.1C668.7 190.9 705.3-.1 926.2 0s245.8 192.7 450.1 124.6 394-16.3 419.4 279-77.9 530.7-630.4 424.2S690.9 996 442.4 960.2C193.9 924.5-14.9 347.3 326.9 269.1z" opacity=".1" fill="#2abdf4" class="color2a94f4 svgShape"></path>
  <ellipse cx="954.3" cy="1018.1" rx="429.3" ry="55.1" opacity=".1" fill="#34b8ea" class="color34c3ea svgShape"></ellipse>
  <path d="M893 629.4h122.6v372.4H893z" fill="#0b5470" class="color0b4870 svgShape"></path>
  <path d="M434.5 844.9H1474c5.3 0 9.6-4.3 9.6-9.6V107.7c0-5.3-4.3-9.6-9.6-9.6H434.5c-5.3 0-9.6 4.3-9.6 9.6v727.7c0 5.3 4.3 9.5 9.6 9.5z" fill="#0e698c" class="color0e538c svgShape"></path>
  <path d="M920.1 781.5c0 18.9 15.3 34.2 34.2 34.2 18.9 0 34.2-15.3 34.2-34.2 0-18.9-15.3-34.1-34.2-34.1-18.9-.1-34.2 15.2-34.2 34.1z" fill="#163a47" class="color163c47 svgShape"></path>
  <path d="M678.5 957.5h551.6v60.6H678.5z" fill="#0e698c" class="color0e538c svgShape"></path>
  <path d="M462.4 134.7h982v574.5h-982z" transform="rotate(-180 953.35 421.924)" fill="#ccf1ff" class="colorcce9ff svgShape"></path>
  <path d="M505.1 177.4h894.8v55H505.1z" fill="#2abdf4" class="color2a94f4 svgShape"></path>
  <path d="M505.1 232.4h894.8v339.2H505.1z" fill="#f7f7f7" class="colorf7f7f7 svgShape"></path>
  <path d="M479.2 433.9h413.4V667H479.2z" fill="#19a8de" class="color31a1f4 svgShape"></path>
  <path d="M479.2 410.8h419.4v23.1H479.2z" fill="#d3d3d3" class="colord3d3d3 svgShape"></path>
  <path d="M668.8 464.3h161.6v2.8H668.8zM497.9 453.9h367.5v2.8H497.9zM497.9 464.3h161.6v2.8H497.9zM838.2 464.3h27.2v2.8h-27.2z" fill="#ffffff" class="colorffffff svgShape"></path>
  <path d="M532.8 487.9h161.6v2.8H532.8z" transform="rotate(-180 613.61 489.27)" fill="#ffffff" class="colorffffff svgShape"></path>
  <path d="M497.9 498.3h367.5v2.8H497.9z" transform="rotate(-180 681.612 499.706)" fill="#ffffff" class="colorffffff svgShape"></path>
  <path d="M703.8 487.9h161.6v2.8H703.8z" transform="rotate(-180 784.569 489.27)" fill="#ffffff" class="colorffffff svgShape"></path>
  <path d="M497.9 487.9h27.2v2.8h-27.2z" transform="rotate(-180 511.445 489.27)" fill="#ffffff" class="colorffffff svgShape"></path>
  <path d="M497.9 474.7h367.5v2.8H497.9zM668.8 522.4h161.6v2.8H668.8zM497.9 512h367.5v2.8H497.9zM497.9 522.4h161.6v2.8H497.9zM838.2 522.4h27.2v2.8h-27.2z" fill="#ffffff" class="colorffffff svgShape"></path>
  <path d="M532.8 545.9h161.6v2.8H532.8z" transform="rotate(-180 613.61 547.365)" fill="#ffffff" class="colorffffff svgShape"></path>
  <path d="M497.9 556.4h367.5v2.8H497.9z" transform="rotate(-180 681.612 557.801)" fill="#ffffff" class="colorffffff svgShape"></path>
  <path d="M703.8 545.9h161.6v2.8H703.8z" transform="rotate(-180 784.569 547.365)" fill="#ffffff" class="colorffffff svgShape"></path>
  <path d="M497.9 545.9h27.2v2.8h-27.2z" transform="rotate(-180 511.445 547.365)" fill="#ffffff" class="colorffffff svgShape"></path>
  <path d="M497.9 532.8h367.5v2.8H497.9z" fill="#ffffff" class="colorffffff svgShape"></path>
  <path d="M883.3 433.9h15.2V667h-15.2z" fill="#add2e0" class="coloradcfe0 svgShape"></path>
  <path d="M929.3 330.4h470.6v55H929.3z" fill="#19a8de" class="color31a1f4 svgShape"></path>
  <path d="M929.3 385.4h470.6v281.5H929.3z" fill="#f7f7f7" class="colorf7f7f7 svgShape"></path>
  <path d="M895.7 437.2h-9.6c-1.6 0-2.8 1.3-2.8 2.8v11.1c0 1.6 1.3 2.8 2.8 2.8h9.6c1.6 0 2.8-1.3 2.8-2.8V440c.1-1.5-1.2-2.8-2.8-2.8z" fill="#e9f9ff" class="colore9f8ff svgShape"></path>
  <path d="M1117.5 683.4h63.1v163.1h-63.1z" transform="rotate(-52.614 1149.007 764.934)" fill="#55d0ff" class="colorffbe55 svgShape"></path>
  <path d="M1117.5 683.4h63.1v163.1h-63.1z" transform="rotate(-52.614 1149.007 764.934)" opacity="8.000000e-02" fill="#000000" class="color000000 svgShape"></path>
  <path d="m1441.5 968.9-18.9 24.7c-12.2 16-35.1 19.1-51.1 6.8l-205.5-157 63.2-82.6 205.5 157c16 12.2 19 35.1 6.8 51.1z" fill="#55d0ff" class="colorffbe55 svgShape"></path>
  <circle cx="850.2" cy="525.6" r="316.1" fill="#55d0ff" class="colorffbe55 svgShape"></circle>
  <defs>
    <circle id="SVGID_1_" cx="850.2" cy="527.5" r="261.3" fill="#000000" class="color000000 svgShape"></circle>
  </defs>
  <clipPath id="SVGID_2_">
    <use xlink:href="#SVGID_1_" overflow="visible" fill="#000000" class="color000000 svgShape"></use>
  </clipPath>
  <g clip-path="url(#SVGID_2_)" fill="#000000" class="color000000 svgShape">
    <path d="M252.2 209.9h1064.7v681.8H252.2z" transform="rotate(-180 784.569 550.783)" fill="#ccf1ff" class="colorcce9ff svgShape"></path>
    <path d="M298.6 204.9h970.1v442.3H298.6z" fill="#f7f7f7" class="colorf7f7f7 svgShape"></path>
    <path d="M282.1 402.4h734.6v414.1H282.1z" fill="#2abdf4" class="color2a94f4 svgShape"></path>
    <path d="M282.1 361.5h745.2v41H282.1z" fill="#d3d3d3" class="colord3d3d3 svgShape"></path>
    <path d="M619.1 456.5h287.1v5H619.1zM315.3 438h653v5h-653zM315.3 456.5h287.1v5H315.3zM920.1 456.5h48.3v5h-48.3z" fill="#ffffff" class="colorffffff svgShape"></path>
    <path d="M377.4 498.4h287.1v5H377.4z" transform="rotate(-180 521.001 500.89)" fill="#ffffff" class="colorffffff svgShape"></path>
    <path d="M315.3 516.9h653v5h-653z" transform="rotate(-180 641.839 519.434)" fill="#ffffff" class="colorffffff svgShape"></path>
    <path d="M681.2 498.4h287.1v5H681.2z" transform="rotate(-180 824.79 500.89)" fill="#ffffff" class="colorffffff svgShape"></path>
    <path d="M315.3 498.4h48.3v5h-48.3z" transform="rotate(-180 339.456 500.89)" fill="#ffffff" class="colorffffff svgShape"></path>
    <path d="M315.3 475.1h653v5h-653zM619.1 559.8h287.1v5H619.1zM315.3 541.2h653v5h-653zM315.3 559.8h287.1v5H315.3zM920.1 559.8h48.3v5h-48.3z" fill="#ffffff" class="colorffffff svgShape"></path>
    <path d="M377.4 601.6h287.1v5H377.4z" transform="rotate(-180 521.001 604.123)" fill="#ffffff" class="colorffffff svgShape"></path>
    <path d="M315.3 620.1h653v5h-653z" transform="rotate(-180 641.839 622.668)" fill="#ffffff" class="colorffffff svgShape"></path>
    <path d="M681.2 601.6h287.1v5H681.2z" transform="rotate(-180 824.79 604.123)" fill="#ffffff" class="colorffffff svgShape"></path>
    <path d="M315.3 601.6h48.3v5h-48.3z" transform="rotate(-180 339.456 604.123)" fill="#ffffff" class="colorffffff svgShape"></path>
    <path d="M315.3 578.3h653v5h-653z" fill="#ffffff" class="colorffffff svgShape"></path>
    <path d="M1000.3 402.4h27.1v414.1h-27.1z" fill="#ccf1ff" class="colorcce9ff svgShape"></path>
    <path d="M1024.5 408.3H1003c-1.6 0-2.8 1.3-2.8 2.8v24c0 1.6 1.3 2.8 2.8 2.8h21.5c1.6 0 2.8-1.3 2.8-2.8v-24c0-1.5-1.2-2.8-2.8-2.8z" fill="#f7f7f7" class="colorf7f7f7 svgShape"></path>
  </g>
</svg>
