<svg width="71" height="32" viewBox="0 0 71 32" fill="none" xmlns="http://www.w3.org/2000/svg">
<g clip-path="url(#clip0)">
<path d="M15.1013 32.0001C9.39003 32.0001 4.0315 29.7827 0 25.7344L3.57795 22.1565C6.65197 25.2305 10.7507 26.9271 15.1013 26.9271C19.4352 26.9271 23.5003 25.2473 26.5743 22.1901L30.1354 25.7848C26.1207 29.7995 20.779 32.0001 15.1013 32.0001Z" fill="#1AA8DE"/>
<path d="M28.4223 10.5827C29.6989 9.20524 31.3115 8.53333 33.2265 8.53333C35.1918 8.53333 36.4349 9.07086 36.9724 10.1291V8.55012H42.0118V22.4756H36.9724V20.8966C36.4349 21.9548 35.1918 22.4924 33.2265 22.4924C31.3115 22.4924 29.6821 21.8205 28.4223 20.4598C27.1456 19.116 26.5073 17.4698 26.5073 15.5213C26.5073 13.5727 27.1624 11.9265 28.4223 10.5827ZM34.2848 18.0913C35.8302 18.0913 37.1236 16.9323 37.1236 15.5045C37.1236 14.0934 35.8302 12.9176 34.2848 12.9176C32.7393 12.9176 31.4459 14.1102 31.4459 15.5045C31.4459 16.9323 32.7393 18.0913 34.2848 18.0913Z" fill="white"/>
<path d="M44.3633 22.4587V8.51643H49.4195V10.4986C50.209 9.17155 51.5024 8.49963 53.2494 8.49963C53.5517 8.49963 54.274 8.58362 54.4084 8.58362V13.1191C53.9549 13.0351 53.5181 12.9847 53.0646 12.9847C50.6961 12.9847 49.4195 14.2277 49.4195 16.3946V22.4587H44.3633Z" fill="white"/>
<path d="M56.7603 8.51636H61.8164V16.025C61.8164 17.2345 62.4715 17.856 63.765 17.856C65.0584 17.856 65.7135 17.2345 65.7135 16.025V8.51636H70.7697V16.4786C70.7697 18.4439 70.0978 19.9389 68.7372 20.93C67.3933 21.9211 65.7471 22.4418 63.765 22.4418C61.7996 22.4418 60.1534 21.9211 58.7928 20.93C57.449 19.9053 56.7603 18.4103 56.7603 16.4786V8.51636Z" fill="white"/>
<path d="M15.1015 22.442C11.9435 22.442 8.98705 21.2157 6.75293 18.9816L10.3309 15.4037C11.5907 16.6803 13.2873 17.369 15.0847 17.369C15.891 17.369 16.6637 17.2346 17.4196 16.9491C18.3939 16.5795 19.0658 15.6052 19.0658 14.4966V5.05617H10.8852V0H24.1388V14.5134C24.1388 17.7218 22.1566 20.6278 19.1834 21.7197C17.8899 22.19 16.5125 22.442 15.1015 22.442Z" fill="white"/>
<path d="M44.9679 28.8082C45.1527 29.1106 45.4382 29.2618 45.8246 29.2618C46.1774 29.2618 46.3453 29.1106 46.3453 28.9258C46.3453 28.7914 46.2781 28.7074 46.1606 28.6402C46.0934 28.5899 45.959 28.5395 45.8582 28.5059C45.7742 28.4723 45.5726 28.4051 45.4718 28.3715C44.9343 28.1699 44.632 27.8843 44.632 27.3804C44.632 27.078 44.7327 26.8429 44.9679 26.6749C45.1863 26.4901 45.455 26.4061 45.791 26.4061C46.2949 26.4061 46.6645 26.5909 46.9333 26.9773L46.4293 27.3636C46.2949 27.1788 46.0766 27.0948 45.8078 27.0948C45.5558 27.0948 45.3879 27.2124 45.3879 27.3804C45.3879 27.498 45.4215 27.5652 45.5222 27.6324C45.5726 27.666 45.623 27.6828 45.6734 27.6996L45.9254 27.7836C46.043 27.8172 46.1438 27.8507 46.2278 27.8843C46.8493 28.1195 47.1012 28.4051 47.1012 28.909C47.1012 29.5473 46.6645 29.9673 45.8246 29.9673C45.1359 29.9673 44.6487 29.6481 44.4136 29.2114L44.9679 28.8082Z" fill="#BEC6CA"/>
<path d="M47.941 26.9101C48.2938 26.5574 48.7306 26.3894 49.2513 26.3894C49.7552 26.3894 50.192 26.5574 50.5447 26.9101C50.8975 27.2629 51.0823 27.6828 51.0823 28.17C51.0823 28.6739 50.8975 29.0939 50.5447 29.4466C50.192 29.7826 49.7552 29.9674 49.2345 29.9674C48.7306 29.9674 48.2938 29.7994 47.9242 29.4466C47.5715 29.0939 47.3867 28.6739 47.3867 28.17C47.4035 27.666 47.5883 27.2461 47.941 26.9101ZM48.4786 28.9595C48.6802 29.1611 48.9489 29.2786 49.2513 29.2786C49.5536 29.2786 49.8056 29.1779 50.0072 28.9595C50.2256 28.7411 50.3264 28.4891 50.3264 28.1868C50.3264 27.8844 50.2256 27.6324 50.0072 27.4141C49.8056 27.1957 49.5368 27.0949 49.2345 27.0949C48.9321 27.0949 48.6802 27.1957 48.4618 27.4141C48.2602 27.6324 48.1426 27.8844 48.1426 28.1868C48.1762 28.4891 48.277 28.7411 48.4786 28.9595Z" fill="#BEC6CA"/>
<path d="M51.603 29.8833V26.4397H53.8707V27.1284H52.3589V27.8339H53.7364V28.5058H52.3589V29.8833H51.603Z" fill="#BEC6CA"/>
<path d="M55.0132 29.8833V27.1284H54.0894V26.4397H56.7098V27.1284H55.7859V29.8833H55.0132Z" fill="#BEC6CA"/>
<path d="M58.0029 29.8833L56.9614 26.4397H57.7173L58.3724 28.5562L58.994 26.4397H59.5987L60.2202 28.5562L60.8753 26.4397H61.6144L60.573 29.8833H59.9347L59.3131 27.8339L58.6916 29.8833H58.0029Z" fill="#BEC6CA"/>
<path d="M61.1777 29.8833L62.6056 26.4397H63.2775L64.7053 29.8833H63.899L63.6638 29.3121H62.2192L61.984 29.8833H61.1777ZM62.4376 28.7074H63.4455L62.9415 27.4644L62.4376 28.7074Z" fill="#BEC6CA"/>
<path d="M65.1084 29.8833V26.4397H66.553C66.8722 26.4397 67.1577 26.5405 67.3761 26.7757C67.6113 26.994 67.7289 27.2628 67.7289 27.582C67.7289 28.0187 67.4937 28.4051 67.1241 28.5562L67.964 29.8833H67.1073L66.385 28.741H66.3682H65.8643V29.8833H65.1084ZM65.8643 28.0691H66.469C66.7714 28.0691 66.9562 27.8843 66.9562 27.582C66.9562 27.3132 66.7714 27.1284 66.5194 27.1284H65.8475V28.0691H65.8643Z" fill="#BEC6CA"/>
<path d="M68.3506 29.8833V26.4397H70.7023V27.1284H69.1065V27.7835H70.6015V28.4554H69.1065V29.1946H70.7359V29.8833H68.3506Z" fill="#BEC6CA"/>
</g>
<defs>
<clipPath id="clip0">
<rect width="70.736" height="32" fill="white"/>
</clipPath>
</defs>
</svg>
