<svg width="160" height="80" viewBox="0 0 160 80" fill="none" xmlns="http://www.w3.org/2000/svg">
<path d="M24.0015 42.0525C23.8511 28.8799 34.9971 24.8273 40.3304 24.6606V32.237C36.9051 32.237 32.1763 36.0363 32.1763 41.2248C32.1763 48.2742 37.4971 50.8714 40.3305 51.0381L40.3303 58.6166C34.0758 58.6166 24.1314 53.4255 24.0015 42.0525Z" fill="black"/>
<path d="M58.7071 42.0525C58.8574 28.8799 47.7115 24.8273 42.3782 24.6606V32.2369C45.8035 32.2369 50.5323 36.0362 50.5323 41.2247C50.5323 48.2741 45.2115 50.8713 42.3781 51.038L42.3783 58.6165C48.6328 58.6165 58.5772 53.4255 58.7071 42.0525Z" fill="black"/>
<path fill-rule="evenodd" clip-rule="evenodd" d="M85.3314 48.6482H68.6783C69.5257 52.3583 74.9935 53.8407 77.4749 50.6718H85.1984C84.5899 53.9571 80.8396 59.0585 72.1811 58.4794C56.7352 57.0348 57.5747 34.4585 72.8611 34.148C84.2829 33.916 86.1341 43.9486 85.3314 48.6482ZM68.5405 44.0313H78.1097C77.9558 42.824 76.994 40.3164 73.6207 40.1512C70.2474 39.9859 68.7653 42.6863 68.5405 44.0313Z" fill="black"/>
<path d="M100.319 57.9616H92.5157L92.4833 41.3363H86.7572V34.6618L92.4833 34.6611C92.4833 30.1657 92.4833 26.3732 95.9828 23.3537C100.018 19.8725 105.903 21.0786 109.039 21.8132L107.972 28.32C107.972 28.32 105.69 27.9515 104.537 27.9138C101.134 27.8026 100.332 30.398 100.319 31.5458V34.6618H108.584V41.3363H100.319V57.9616Z" fill="black"/>
<path fill-rule="evenodd" clip-rule="evenodd" d="M127.847 34.6851V35.8907C120.182 31.3476 110.474 36.2516 109.82 44.937C109.102 54.4805 116.452 58.1255 120.028 58.3996C124.181 58.718 126.09 57.6538 127.479 56.8797C127.605 56.8091 127.728 56.7409 127.847 56.6764V57.9548H135.698V34.6851H127.847ZM127.847 42.6784V49.8496C124.952 53.636 117.474 52.6225 117.474 46.4457C117.474 39.6761 124.856 39.1024 127.847 42.6784Z" fill="black"/>
</svg>
