<svg width="160" height="80" viewBox="0 0 160 80" fill="none" xmlns="http://www.w3.org/2000/svg">
<path d="M48.6467 30.0002V41.5115C48.6467 42.735 48.9486 43.6768 49.5523 44.337C50.1561 44.9973 51.0422 45.3274 52.7463 45.3274C53.9148 45.3274 54.8107 44.9973 55.4339 44.337C56.0571 43.6768 56.3687 42.735 56.3687 41.5115V30.0002L61.8826 30.0584V41.5407C61.8826 43.3661 61.4931 44.9099 60.7141 46.1722C59.9351 47.4344 58.8834 48.386 57.5591 49.0268C56.2542 49.6676 54.2751 49.9298 52.6587 49.9298C50.5066 49.9298 48.3574 49.6482 47.072 49.0268C45.8061 48.386 44.8031 47.4344 44.0631 46.1722C43.323 44.8905 42.953 43.337 42.953 41.5115V30.0293L48.6467 30.0002Z" fill="black"/>
<path d="M31.7843 49.9742C29.8427 49.9742 26.6821 49.477 25.144 49.015C23.6058 48.553 22.3703 47.8693 21.4373 46.9638C20.5295 46.0584 20.0504 44.9681 20 43.6931H26.8838C26.9847 44.4137 27.3251 44.9681 27.9051 45.3562C28.485 45.7258 29.9198 46.057 30.8528 46.057C31.811 46.057 33.4786 45.9752 34.0333 45.6611C34.5881 45.3285 34.8654 44.8757 34.8654 44.3029C34.8654 43.8224 34.9087 43.4787 34.6855 43.0276C34.2261 42.0991 32.609 42.1207 32.0427 42.1207C30.6957 42.1207 28.7993 41.9667 28.7993 41.9667C28.7993 41.9667 26.1981 41.6856 24.6635 40.8203C23.6448 40.2459 23.0369 39.9628 22.3686 38.8987C21.7246 37.8733 21.6651 37.0129 21.6651 35.7933C21.6651 33.9824 22.5603 32.5687 24.3506 31.5524C26.1409 30.5176 28.4733 30.0002 31.3479 30.0002C34.2729 30.0002 36.6305 30.5176 38.4208 31.5524C40.2111 32.5687 41.1693 33.9916 41.2954 35.821H34.2981C34.2476 35.1927 33.9325 34.703 33.3525 34.3519C32.7725 33.9824 32.0287 33.7976 31.1209 33.7976C30.3392 33.7976 29.7089 33.9547 29.2298 34.2688C28.7507 34.5645 28.5111 34.9987 28.5111 35.5716C28.5111 36.1998 29.2632 36.6087 29.8349 36.8575C30.4066 37.1062 32.1969 37.2037 33.4492 37.4187C34.8097 37.6522 36.2086 37.6904 37.7771 38.4326C38.9236 38.9751 39.6418 39.2798 40.4633 40.256C41.2399 41.1789 41.6358 41.9468 41.6358 43.111C41.6358 44.2197 41.245 46.0584 40.4633 46.9638C39.7068 47.8693 38.5973 48.59 37.1348 49.1259C35.6723 49.6618 33.7763 49.9742 31.7843 49.9742Z" fill="black"/>
<path fill-rule="evenodd" clip-rule="evenodd" d="M69.4645 39.5325L77.6425 49.9298L83.7955 36.4695V30.0002H77.3538V39.5325L69.7821 30.0002H63.2399V49.9298H69.4645V39.5325Z" fill="black"/>
<path d="M94.0755 45.2251H85.9644L84.2047 49.9298H95.8077L94.0755 45.2251Z" fill="black"/>
<path d="M92.0958 41.1569L90.0062 36.0407L87.9166 41.1569H92.0958Z" fill="black"/>
<path fill-rule="evenodd" clip-rule="evenodd" d="M112.733 30.0001V34.5938H102.141V37.6224L110.438 37.6224V42.082L102.141 42.082V50L95.8077 36.2456V30.0001H112.733Z" fill="black"/>
<path d="M120.84 30.0001V50H114.273V31.0892L120.84 30.0001Z" fill="black"/>
<path d="M129.161 45.2251L140 45.2252V50H122.646V31.0892L129.161 30.0001V45.2251Z" fill="black"/>
</svg>
