<svg width="150" height="59" viewBox="0 0 150 59" fill="none" xmlns="http://www.w3.org/2000/svg">
<path d="M27.058 42.5908V16.409H32.5936V38.0269H43.818V42.5908H27.058Z" fill="black"/>
<path d="M52.6646 42.5908H46.7328L55.7711 16.409H62.9046L71.9302 42.5908H65.9984L59.4401 22.3919H59.2356L52.6646 42.5908ZM52.2938 32.2996H66.3052V36.6206H52.2938V32.2996Z" fill="black"/>
<path d="M75.0815 42.5908V16.409H85.5644C87.4906 16.409 89.0971 16.6945 90.384 17.2655C91.671 17.8365 92.6383 18.6292 93.286 19.6434C93.9338 20.649 94.2576 21.8081 94.2576 23.1206C94.2576 24.1434 94.0531 25.0425 93.644 25.8181C93.2349 26.5851 92.6724 27.2158 91.9565 27.7101C91.2491 28.1959 90.4394 28.5411 89.5275 28.7456V29.0013C90.5247 29.0439 91.4579 29.3252 92.3272 29.8451C93.2051 30.3649 93.9167 31.0936 94.4622 32.0311C95.0076 32.9601 95.2803 34.0681 95.2803 35.355C95.2803 36.7442 94.9352 37.9843 94.2448 39.0752C93.563 40.1576 92.5531 41.0141 91.215 41.6448C89.8769 42.2755 88.2278 42.5908 86.2676 42.5908H75.0815ZM80.617 38.0652H85.1298C86.6724 38.0652 87.7974 37.7712 88.5048 37.1831C89.2122 36.5865 89.5659 35.7939 89.5659 34.8053C89.5659 34.0809 89.3911 33.4417 89.0417 32.8877C88.6923 32.3337 88.1937 31.899 87.546 31.5837C86.9068 31.2684 86.144 31.1107 85.2576 31.1107H80.617V38.0652ZM80.617 27.3649H84.7207C85.4792 27.3649 86.1525 27.2328 86.7406 26.9686C87.3372 26.6959 87.8059 26.3124 88.1468 25.8181C88.4963 25.3238 88.671 24.7314 88.671 24.0411C88.671 23.0951 88.3343 22.3323 87.661 21.7527C86.9963 21.1732 86.0502 20.8834 84.823 20.8834H80.617V27.3649Z" fill="black"/>
<path d="M122.942 29.4999C122.942 32.355 122.401 34.784 121.318 36.7868C120.244 38.7897 118.779 40.3195 116.921 41.3763C115.071 42.4246 112.992 42.9488 110.682 42.9488C108.355 42.9488 106.267 42.4203 104.418 41.3635C102.568 40.3067 101.107 38.7769 100.033 36.774C98.959 34.7712 98.422 32.3465 98.422 29.4999C98.422 26.6448 98.959 24.2158 100.033 22.213C101.107 20.2101 102.568 18.6845 104.418 17.6363C106.267 16.5794 108.355 16.051 110.682 16.051C112.992 16.051 115.071 16.5794 116.921 17.6363C118.779 18.6845 120.244 20.2101 121.318 22.213C122.401 24.2158 122.942 26.6448 122.942 29.4999ZM117.33 29.4999C117.33 27.6505 117.053 26.0908 116.499 24.8209C115.953 23.551 115.182 22.588 114.185 21.9317C113.188 21.2755 112.02 20.9473 110.682 20.9473C109.344 20.9473 108.176 21.2755 107.179 21.9317C106.182 22.588 105.406 23.551 104.852 24.8209C104.307 26.0908 104.034 27.6505 104.034 29.4999C104.034 31.3493 104.307 32.909 104.852 34.1789C105.406 35.4488 106.182 36.4118 107.179 37.0681C108.176 37.7243 109.344 38.0524 110.682 38.0524C112.02 38.0524 113.188 37.7243 114.185 37.0681C115.182 36.4118 115.953 35.4488 116.499 34.1789C117.053 32.909 117.33 31.3493 117.33 29.4999Z" fill="black"/>
</svg>
