<svg width="160" height="80" viewBox="0 0 160 80" fill="none" xmlns="http://www.w3.org/2000/svg">
<path d="M85.9767 68H82.7219L77.2781 59.6702V68H74.0233V53.6952H77.8216L82.7219 61.8103V53.6952H85.9767V68Z" fill="black"/>
<path d="M68.6264 65.0903H63.4129L62.5619 68H59L64.0543 53.6952H67.9943L73.0486 68H69.4469L68.6264 65.0903ZM67.7098 62.3099L66.0044 57.5465L64.2673 62.3099H67.7098Z" fill="black"/>
<path d="M96.5778 65.0903H91.3643L90.5133 68H86.9514L92.0057 53.6952H95.9457L101 68H97.3983L96.5778 65.0903ZM95.6612 62.3099L93.9558 57.5465L92.2187 62.3099H95.6612Z" fill="black"/>
<path d="M80.075 39.9777L70.2179 13.1247L61.3056 41.2449L65.7414 40.0392C67.3809 39.5936 69.0113 40.0835 70.468 40.5212L70.5377 40.5421C72.057 40.9986 73.5039 41.4334 75.1061 41.277C76.5222 41.1388 78.3154 40.6025 79.7973 40.0772C79.8915 40.0439 79.9841 40.0107 80.075 39.9777Z" fill="black"/>
<path d="M80.5739 41.337L80.3603 41.6096C78.8563 42.1426 76.9017 42.7389 75.2701 42.8981C73.3323 43.0872 71.6059 42.5675 70.1517 42.1297L70.0081 42.0865C68.452 41.619 67.2889 41.3089 66.1838 41.6092L60.7194 43.0945L59 48.5195C59 48.5195 66.085 47.9024 70.4161 48.5195C74.2126 49.0605 83.4571 49.1915 83.4571 49.1915L80.5739 41.337Z" fill="black"/>
<path d="M77.586 13.5572C76.9397 13.8035 73.6229 13.6598 72.0453 13.5572L74.0435 19.2371C74.7307 19.3559 76.2041 19.395 77.9543 19.395C78.9392 19.395 79.7383 18.9069 80.429 18.5251C81.5506 18.1167 82.3896 17.8731 84.3514 17.7809C87.9192 17.613 89.7833 18.7962 90.6126 19.5726C90.6126 19.5726 90.1107 18.0037 89.7402 17.0159C89.4092 16.1331 89.2101 15.6427 88.8322 14.7788C87.4828 13.2198 87.2057 13.0211 85.2938 12.2423C84.9818 12.1152 84.5984 12.0258 84.2621 12.0018C83.0585 11.9816 81.8877 12.1306 80.7278 12.4518C79.5016 12.7913 78.4171 13.2256 77.8591 13.4491C77.7449 13.4948 77.6528 13.5317 77.586 13.5572Z" fill="black"/>
<path fill-rule="evenodd" clip-rule="evenodd" d="M92.3074 24.6173L93.9949 29.198C93.9949 29.198 93.6566 27.6291 93.2862 26.6413C92.9833 25.8337 92.6273 25.3544 92.3074 24.6173Z" fill="black"/>
<path d="M78.949 33.1519C80.5266 33.2545 83.8433 33.3982 84.4896 33.1519C84.5564 33.1264 84.6485 33.0895 84.7627 33.0438C85.3208 32.8203 86.4053 32.386 87.6314 32.0465C88.7913 31.7254 89.9621 31.5763 91.1658 31.5965C91.502 31.6205 91.8854 31.7099 92.1975 31.8371C94.1093 32.6158 94.3865 32.8145 95.7359 34.3735C96.1137 35.2374 96.3128 35.7278 96.6438 36.6106C97.0143 37.5984 97.5162 39.1673 97.5162 39.1673C96.6869 38.3909 94.8229 37.2077 91.255 37.3756C89.2933 37.4678 88.4542 37.7114 87.3326 38.1198C86.6419 38.5016 85.8428 38.9897 84.8579 38.9897C83.1077 38.9897 81.6343 38.9506 80.9472 38.8318L78.949 33.1519Z" fill="black"/>
<path d="M87.9734 43.0855C87.3271 43.3318 84.0103 43.1881 82.4327 43.0855L84.4309 48.7655C85.1181 48.8843 86.5915 48.9234 88.3417 48.9234C89.3266 48.9234 90.1257 48.4352 90.8164 48.0534C91.938 47.645 92.777 47.4015 94.7388 47.3092C98.3067 47.1414 100.171 48.3245 101 49.1009C101 49.1009 100.498 47.5321 100.128 46.5443C99.7966 45.6615 99.5975 45.171 99.2197 44.3072C97.8702 42.7481 97.5931 42.5494 95.6813 41.7707C95.3692 41.6436 94.9858 41.5542 94.6495 41.5302C93.4459 41.5099 92.2751 41.659 91.1152 41.9801C89.889 42.3196 88.8046 42.7539 88.2465 42.9775C88.1323 43.0232 88.0402 43.0601 87.9734 43.0855Z" fill="black"/>
<path d="M80.9683 23.1826C80.322 23.4288 77.0052 23.2852 75.4276 23.1826L77.4258 28.8625C78.113 28.9813 79.5863 29.0204 81.3366 29.0204C82.3215 29.0204 83.1206 28.5323 83.8113 28.1504C84.9329 27.7421 85.7719 27.4985 87.7337 27.4062C91.3015 27.2384 93.1656 28.4215 93.9949 29.198L92.3074 24.6173C92.2776 24.5486 92.2467 24.4778 92.2145 24.4042C90.8651 22.8451 90.588 22.6465 88.6761 21.8677C88.3641 21.7406 87.9807 21.6512 87.6444 21.6272C86.4408 21.607 85.27 21.756 84.1101 22.0772C82.8839 22.4166 81.7994 22.851 81.2414 23.0745C81.1272 23.1202 81.0351 23.1571 80.9683 23.1826Z" fill="black"/>
</svg>
