<svg width="150" height="59" viewBox="0 0 150 59" fill="none" xmlns="http://www.w3.org/2000/svg">
<path d="M17.2431 42.591V16.4092H27.5726C29.5584 16.4092 31.2502 16.7884 32.6479 17.547C34.0457 18.297 35.111 19.341 35.844 20.6791C36.5854 22.0086 36.9562 23.5427 36.9562 25.2813C36.9562 27.02 36.5812 28.5541 35.8312 29.8836C35.0812 31.2132 33.9945 32.2487 32.5712 32.9901C31.1565 33.7316 29.4434 34.1024 27.432 34.1024H20.8482V29.6663H26.5371C27.6025 29.6663 28.4803 29.483 29.1707 29.1166C29.8695 28.7416 30.3894 28.2259 30.7303 27.5697C31.0798 26.9049 31.2545 26.1421 31.2545 25.2813C31.2545 24.412 31.0798 23.6535 30.7303 23.0058C30.3894 22.3495 29.8695 21.8424 29.1707 21.4845C28.4718 21.118 27.5854 20.9347 26.5116 20.9347H22.7786V42.591H17.2431Z" fill="black"/>
<path d="M40.5517 42.591V16.4092H58.1937V20.9731H46.0872V27.2117H57.2861V31.7757H46.0872V38.0271H58.2449V42.591H40.5517Z" fill="black"/>
<path d="M84.4938 16.4092V42.591H79.7126L68.3219 26.1123H68.1302V42.591H62.5947V16.4092H67.4526L78.7538 32.8751H78.9839V16.4092H84.4938Z" fill="black"/>
<path d="M93.5801 42.591H87.6483L96.6866 16.4092H103.82L112.846 42.591H106.914L100.356 22.3921H100.151L93.5801 42.591ZM93.2094 32.2998H107.221V36.6208H93.2094V32.2998Z" fill="black"/>
<path d="M115.997 42.591V16.4092H121.533V38.0271H132.757V42.591H115.997Z" fill="black"/>
</svg>
