<svg width="160" height="80" viewBox="0 0 160 80" fill="none" xmlns="http://www.w3.org/2000/svg">
<path d="M67.562 55.7042C67.9898 54.217 68.8523 53.0557 70.2445 52.4038C72.6349 51.29 75.0254 51.3172 77.3072 52.7297C78.2715 53.3273 78.9914 54.1694 79.297 55.2968C79.3106 55.3375 79.3309 55.3782 79.3513 55.419C79.3581 55.4326 79.3785 55.4462 79.4124 55.4869C79.4124 54.4139 79.426 53.3681 79.4056 52.3155C79.3988 52.0099 79.4735 51.908 79.7927 51.9148C81.1306 51.9352 82.4616 51.9216 83.7994 51.9216C83.9217 51.9216 84.0439 51.9216 84.2137 51.9216C84.2137 52.3291 84.2137 52.7161 84.2137 53.1983C85.1848 52.071 86.3189 51.5617 87.7451 51.6635C87.7451 52.3766 87.7451 53.0761 87.7451 53.7688C88.5057 52.5871 89.4836 51.7858 90.9233 51.6635C92.3155 51.5481 93.5039 51.9555 94.5226 53.0693C94.5226 52.7094 94.5294 52.4445 94.5226 52.1729C94.5158 51.9827 94.5905 51.9148 94.7806 51.9148C96.1864 51.9216 97.5853 51.9216 98.9911 51.9148C99.2288 51.9148 99.2763 52.0167 99.2695 52.2204C99.2559 55.0251 99.2763 57.8366 99.2288 60.6413C99.1948 62.699 98.0811 64.1319 96.2407 64.8857C94.2509 65.7007 92.1593 65.8365 90.0472 65.3136C89.7552 65.2389 89.6262 65.1302 89.633 64.7907C89.6534 63.9078 89.6126 63.025 89.599 62.1422C89.599 62.0539 89.6058 61.9656 89.6126 61.8366C90.5702 62.1422 91.5141 61.8841 92.4581 61.8705C92.9606 61.8637 93.4428 61.7211 93.8638 61.4427C94.4275 61.0692 94.638 60.424 94.4818 59.5072C94.1355 59.7381 93.8435 60.0098 93.4903 60.2067C91.3647 61.4087 87.9081 60.7024 87.3308 57.3341C87.2629 56.9402 87.2561 56.5463 87.2765 56.1524C87.2901 55.9351 87.2018 55.8536 87.0048 55.7993C86.5091 55.6635 86.0201 55.6635 85.5312 55.8061C84.7774 56.0166 84.3767 56.6074 84.3699 57.5174C84.3563 58.5701 84.3699 59.6227 84.3631 60.6753C84.3631 60.7839 84.3971 60.8994 84.3156 61.0216C82.6993 61.0216 81.0762 61.0216 79.4192 61.0216C79.4192 59.7653 79.4192 58.5157 79.4192 57.239C77.0831 57.239 74.7877 57.239 72.4923 57.239C72.3769 58.2169 72.859 58.7942 73.7079 58.7127C74.0475 58.6787 74.2987 58.4953 74.4753 58.2169C74.5432 58.1083 74.6043 58.02 74.7605 58.02C76.241 58.02 77.7282 58.0132 79.2087 58.0132C79.2291 58.0132 79.2494 58.0268 79.3106 58.0539C79.1544 58.6448 78.8216 59.1337 78.4141 59.5683C77.3751 60.6753 76.0373 61.1439 74.5772 61.3204C72.9949 61.5106 71.4601 61.3204 70.0475 60.5123C68.8251 59.806 67.983 58.8077 67.6367 57.4224C67.6299 57.3884 67.6163 57.3612 67.6027 57.3273C67.6027 57.3205 67.5892 57.3205 67.5552 57.3001C67.5552 58.4478 67.5484 59.5819 67.562 60.716C67.562 60.9401 67.5145 61.0352 67.27 61.0352C65.7895 61.0284 64.3023 61.0284 62.8218 61.0284C62.7675 61.0284 62.7132 61.0148 62.6656 61.008C62.5977 60.879 62.6249 60.75 62.6249 60.6277C62.6249 59.2831 62.6249 57.9317 62.6249 56.5871C62.6249 56.3154 62.6045 56.0438 62.5366 55.7789C62.4619 55.4869 62.3125 55.2832 61.9933 55.256C61.6605 55.222 61.3889 55.3239 61.2123 55.6295C61.0358 55.9283 61.029 56.2543 61.0222 56.5803C61.0154 57.9249 61.0222 59.2763 61.0222 60.621C61.0222 60.7432 61.0222 60.8654 61.0222 61.008C59.3652 61.008 57.7421 61.008 56.1258 61.008C56.0307 60.8926 56.0715 60.7636 56.0715 60.6413C56.0715 57.8706 56.0783 55.093 56.0647 52.3223C56.0647 51.9895 56.1666 51.908 56.4857 51.9148C57.81 51.9284 59.1343 51.9352 60.4585 51.9148C60.8049 51.908 60.9271 52.0167 60.8796 52.3562C60.8524 52.5871 60.8728 52.818 60.8728 53.1304C61.3074 52.7094 61.6877 52.3426 62.1495 52.0846C63.2429 51.4666 65.6944 51.3715 66.8218 52.7569C67.3039 53.3545 67.5348 54.0336 67.5484 54.7874C67.5688 55.0998 67.562 55.3986 67.562 55.7042ZM93.3952 57.402C94.1491 57.4224 94.6312 56.9198 94.6244 56.2679C94.6176 55.548 94.1355 55.1066 93.3613 55.1134C92.6346 55.1202 92.1661 55.5752 92.1661 56.2611C92.1661 56.9741 92.6346 57.4088 93.3952 57.402ZM74.7062 55.1949C74.6247 54.4954 74.2987 54.1966 73.64 54.2034C73.0152 54.2102 72.601 54.5701 72.5466 55.1949C73.2597 55.1949 73.9728 55.1949 74.7062 55.1949Z" fill="black"/>
<path d="M41.851 54.0942C42.5912 52.4508 43.963 51.8939 45.5385 51.7173C47.0733 51.5475 48.5877 51.6766 50.0546 52.1995C50.1904 52.247 50.3398 52.281 50.4688 52.41C50.0749 53.2996 49.6811 54.1893 49.2668 55.1264C48.8458 54.8616 48.4247 54.6782 47.9969 54.5017C47.6845 54.3726 47.3585 54.2776 47.0122 54.2911C46.8492 54.2979 46.6998 54.3251 46.5572 54.4134C46.2516 54.5967 46.2516 54.8616 46.5572 55.0382C46.7541 55.1536 46.9714 55.2079 47.1955 55.2555C47.7049 55.3573 48.2142 55.4592 48.7099 55.6154C49.3755 55.8259 49.9935 56.1044 50.4824 56.7563C50.4824 55.1061 50.4824 53.5441 50.4824 51.9686C52.1462 51.9686 53.7693 51.9686 55.4127 51.9686C55.4127 54.9974 55.4127 57.9991 55.4127 61.0279C53.7761 61.0279 52.1394 61.0279 50.4824 61.0279C50.4824 60.471 50.4824 59.9345 50.4824 59.2894C50.0682 59.9345 49.586 60.3556 49.0087 60.6747C47.9561 61.252 46.8084 61.4082 45.6336 61.4014C44.126 61.3878 42.6727 61.089 41.2805 60.4982C41.2194 60.471 41.1651 60.4371 41.0632 60.3827C41.4978 59.4524 41.9189 58.5356 42.3535 57.612C42.5912 57.6391 42.7474 57.8021 42.9375 57.8972C43.5963 58.23 44.255 58.5559 45.0156 58.5695C45.5317 58.5763 45.8781 58.4133 45.8441 58.1213C45.8034 57.7138 45.4231 57.707 45.1243 57.6323C44.7168 57.5237 44.3093 57.4422 43.9087 57.3267C42.9647 57.0551 42.143 56.6137 41.8102 55.5135C41.6608 56.342 41.4299 57.0619 41.0428 57.7274C40.0921 59.3573 38.6795 60.4167 36.8935 60.9668C34.2246 61.7817 31.6643 61.5236 29.3146 59.9889C25.2536 57.3335 25.4913 51.4728 29.6746 49.0281C32.4385 47.4186 36.8459 47.4186 39.5624 49.7275C40.8255 50.8005 41.5861 52.1655 41.7966 53.8293C41.817 53.8769 41.8306 53.938 41.851 54.0942ZM34.0888 57.0483C35.5488 57.0687 36.5335 56.1044 36.5471 54.6579C36.5607 53.2114 35.61 52.2131 34.1906 52.1927C32.7237 52.1723 31.7119 53.1434 31.6915 54.5899C31.6779 56.0297 32.649 57.0279 34.0888 57.0483Z" fill="black"/>
<path fill-rule="evenodd" clip-rule="evenodd" d="M96.2755 30.7774C96.3228 28.9759 96.2721 27.8629 95.7348 26.1977C95.4815 25.4124 94.8758 24.2757 94.8758 24.2757C93.3386 21.2266 91.0327 19.3401 88.1278 18.1537L89.665 14.9622C88.9416 14.7605 88.3086 14.5825 87.6644 14.4045C87.6644 14.4045 84.1942 13.6821 81.9422 13.6516C79.7304 13.6216 78.4025 13.4905 76.3047 14.2266C72.6187 15.5199 70.4383 17.774 68.8672 21.1672C67.8386 20.6808 66.8891 20.2299 65.917 19.7791C65.4875 20.752 65.2954 21.7605 64.8998 22.6859C64.8998 22.6859 64.2834 25.2893 64.2832 26.9884C64.283 28.6574 64.8771 31.2163 64.8771 31.2163C65.5214 33.1265 66.437 34.8231 67.7821 36.2587C69.1384 37.6943 70.7661 38.679 72.5972 39.4621C72.1451 40.6841 71.7269 41.8112 71.3087 42.9858C71.8173 43.1638 72.2694 43.318 72.7894 43.5078C72.7894 43.5078 76.0496 44.1665 78.153 44.1781C80.2563 44.1896 83.5613 43.5671 83.5613 43.5671C87.0766 42.357 89.925 40.435 91.2701 36.5909C92.3891 37.1011 93.4629 37.5875 94.5028 38.0621C94.5028 38.0621 95.5496 35.596 95.7914 34.2941C96.0495 32.9038 96.2391 32.1645 96.2755 30.7774ZM83.064 20.5859C83.1996 19.4706 83.6178 18.474 83.81 17.3469C80.6451 17.3588 77.5706 17.5011 75.0726 19.8503C73.3658 21.4638 72.5407 23.5876 71.9982 25.8655C71.9529 26.0554 71.919 26.257 71.8738 26.4469C71.8625 26.4825 71.8286 26.5062 71.7721 26.5892C70.8226 26.0553 69.8505 25.5096 68.8785 24.952C67.8612 28.9858 69.9523 35.4519 78.4071 37.4689C78.1584 38.3231 77.921 39.1773 77.6723 40.0434C84.0813 40.3756 87.7887 36.935 89.6085 30.7774C90.4449 31.0621 91.0779 31.596 91.9031 31.9163C91.9596 29.0926 91.4057 26.5418 89.6424 24.3943C87.913 22.2825 85.5959 21.2503 83.064 20.5859Z" fill="black"/>
<path d="M104.003 61.0417C102.468 61.0417 100.974 61.0417 99.4665 61.0417C99.4597 60.9602 99.4461 60.8923 99.4461 60.8244C99.4461 58.8346 99.4325 56.8448 99.4529 54.8482C99.4665 53.524 99.9826 52.4646 101.259 51.9213C102.563 51.3712 104.159 51.6836 105.103 52.6343C105.191 52.7226 105.28 52.8041 105.436 52.9467C105.436 52.7023 105.443 52.5257 105.436 52.3559C105.415 52.0843 105.538 51.9552 105.803 51.9484C107.113 51.9484 108.431 51.9484 109.741 51.9484C109.823 51.9484 109.898 51.9552 110.013 51.962C110.013 52.2948 110.013 52.6343 110.013 53.0486C110.4 52.709 110.706 52.4034 111.079 52.1793C113.239 50.889 115.942 52.3016 116.01 54.7939C116.064 56.8652 116.023 58.9365 116.023 61.0077C116.023 61.0417 116.01 61.0689 115.996 61.13C114.495 61.13 113.001 61.13 111.5 61.13C111.432 61.0077 111.466 60.8787 111.466 60.7633C111.466 59.405 111.466 58.0468 111.466 56.6886C111.466 56.4034 111.453 56.125 111.378 55.8465C111.31 55.602 111.174 55.4119 110.903 55.3711C110.638 55.3304 110.414 55.4187 110.244 55.636C110.094 55.8329 110.033 56.057 110.033 56.3015C110.033 57.7752 110.02 59.2421 110.033 60.7157C110.033 61.0417 109.972 61.1707 109.606 61.1639C108.329 61.1436 107.045 61.1503 105.769 61.1639C105.49 61.1639 105.402 61.096 105.402 60.804C105.415 59.31 105.409 57.8159 105.409 56.3219C105.409 56.057 105.388 55.799 105.232 55.5749C105.069 55.3372 104.838 55.2489 104.553 55.2829C104.281 55.31 104.139 55.4798 104.071 55.7311C103.996 56.0095 103.983 56.2879 103.983 56.5732C103.983 57.9314 103.983 59.2896 103.983 60.6478C104.003 60.7768 104.003 60.8991 104.003 61.0417Z" fill="black"/>
<path d="M126.889 61.2383C125.232 61.2383 123.609 61.2383 121.952 61.2383C121.952 58.2163 121.952 55.2078 121.952 52.179C123.534 52.179 125.116 52.179 126.719 52.179C126.719 52.5457 126.719 52.8989 126.719 53.2724C126.909 53.2656 126.97 53.123 127.052 53.0347C128.505 51.4524 130.977 51.6833 132.077 52.4371C132.946 53.0347 133.388 53.8768 133.401 54.909C133.429 56.9667 133.408 59.0244 133.408 61.0821C133.408 61.1229 133.395 61.1704 133.381 61.2315C131.765 61.2315 130.148 61.2315 128.525 61.2315C128.43 61.1229 128.478 60.9803 128.478 60.8512C128.478 59.527 128.478 58.2027 128.471 56.8785C128.471 56.6204 128.458 56.3555 128.424 56.0975C128.369 55.7036 128.159 55.4999 127.819 55.4727C127.418 55.4387 127.126 55.6153 126.997 55.982C126.902 56.2537 126.875 56.5321 126.875 56.8173C126.875 58.1552 126.875 59.4862 126.875 60.8241C126.889 60.9599 126.889 61.0957 126.889 61.2383Z" fill="black"/>
<path d="M116.546 52.2334C118.176 52.2334 119.792 52.2334 121.429 52.2334C121.429 55.2486 121.429 58.2639 121.429 61.2927C119.799 61.2927 118.183 61.2927 116.546 61.2927C116.546 58.2775 116.546 55.2758 116.546 52.2334Z" fill="black"/>
<path d="M50.4213 48.2201C52.0851 48.2201 53.7422 48.2201 55.4196 48.2201C55.4196 49.2999 55.4196 50.3661 55.4196 51.4594C53.7625 51.4594 52.1055 51.4594 50.4213 51.4594C50.4213 50.4 50.4213 49.3338 50.4213 48.2201Z" fill="black"/>
<path d="M121.47 48.4984C121.47 49.5918 121.47 50.658 121.47 51.7378C119.799 51.7378 118.142 51.7378 116.464 51.7378C116.464 50.658 116.464 49.5918 116.464 48.4984C118.128 48.4984 119.785 48.4984 121.47 48.4984Z" fill="black"/>
</svg>
