<svg width="150" height="59" viewBox="0 0 150 59" fill="none" xmlns="http://www.w3.org/2000/svg">
<path d="M52.8612 25.5752H47.2617C47.1595 24.8507 46.9506 24.2073 46.6353 23.6448C46.32 23.0738 45.9151 22.588 45.4208 22.1874C44.9265 21.7868 44.3555 21.48 43.7078 21.2669C43.0685 21.0539 42.3739 20.9473 41.6239 20.9473C40.2688 20.9473 39.0884 21.284 38.0828 21.9573C37.0771 22.622 36.2972 23.5936 35.7433 24.872C35.1893 26.1419 34.9123 27.6845 34.9123 29.4999C34.9123 31.3664 35.1893 32.9345 35.7433 34.2044C36.3058 35.4743 37.0899 36.4331 38.0955 37.0809C39.1012 37.7286 40.2646 38.0524 41.5856 38.0524C42.3271 38.0524 43.0131 37.9544 43.6438 37.7584C44.283 37.5624 44.8498 37.2769 45.3441 36.9019C45.8384 36.5184 46.2475 36.0539 46.5714 35.5084C46.9038 34.963 47.1339 34.3408 47.2617 33.6419L52.8612 33.6675C52.7163 34.8692 52.3541 36.0283 51.7745 37.1448C51.2035 38.2527 50.4322 39.2456 49.4606 40.1235C48.4975 40.9928 47.347 41.6831 46.0089 42.1945C44.6793 42.6973 43.1751 42.9488 41.4961 42.9488C39.1609 42.9488 37.0728 42.4203 35.2319 41.3635C33.3995 40.3067 31.9506 38.7769 30.8853 36.774C29.8285 34.7712 29.3001 32.3465 29.3001 29.4999C29.3001 26.6448 29.837 24.2158 30.9109 22.213C31.9847 20.2101 33.4421 18.6845 35.283 17.6363C37.1239 16.5794 39.195 16.051 41.4961 16.051C43.0131 16.051 44.4194 16.2641 45.7149 16.6902C47.0188 17.1164 48.1737 17.7385 49.1793 18.5567C50.185 19.3664 51.0032 20.3593 51.6339 21.5354C52.2731 22.7115 52.6822 24.0581 52.8612 25.5752Z" fill="black"/>
<path d="M62.3661 16.409V42.5908H56.8306V16.409H62.3661Z" fill="black"/>
<path d="M71.6506 16.409L77.9787 36.301H78.2216L84.5625 16.409H90.6989L81.6733 42.5908H74.5398L65.5014 16.409H71.6506Z" fill="black"/>
<path d="M99.3857 16.409V42.5908H93.8502V16.409H99.3857Z" fill="black"/>
<path d="M103.94 42.5908V16.409H109.476V38.0269H120.7V42.5908H103.94Z" fill="black"/>
</svg>
