<svg width="150" height="59" viewBox="0 0 150 59" fill="none" xmlns="http://www.w3.org/2000/svg">
<path d="M42.1944 42.5908H36.2626L45.301 16.409H52.4345L61.46 42.5908H55.5282L48.97 22.3919H48.7654L42.1944 42.5908ZM41.8237 32.2996H55.835V36.6206H41.8237V32.2996Z" fill="black"/>
<path d="M86.4817 25.5752H80.8823C80.78 24.8507 80.5712 24.2073 80.2559 23.6448C79.9405 23.0738 79.5357 22.588 79.0414 22.1874C78.547 21.7868 77.976 21.48 77.3283 21.2669C76.6891 21.0539 75.9945 20.9473 75.2445 20.9473C73.8894 20.9473 72.709 21.284 71.7033 21.9573C70.6976 22.622 69.9178 23.5936 69.3638 24.872C68.8098 26.1419 68.5328 27.6845 68.5328 29.4999C68.5328 31.3664 68.8098 32.9345 69.3638 34.2044C69.9263 35.4743 70.7104 36.4331 71.7161 37.0809C72.7218 37.7286 73.8851 38.0524 75.2061 38.0524C75.9476 38.0524 76.6337 37.9544 77.2644 37.7584C77.9036 37.5624 78.4703 37.2769 78.9647 36.9019C79.459 36.5184 79.8681 36.0539 80.1919 35.5084C80.5243 34.963 80.7544 34.3408 80.8823 33.6419L86.4817 33.6675C86.3368 34.8692 85.9746 36.0283 85.3951 37.1448C84.824 38.2527 84.0527 39.2456 83.0811 40.1235C82.1181 40.9928 80.9675 41.6831 79.6294 42.1945C78.2999 42.6973 76.7956 42.9488 75.1167 42.9488C72.7814 42.9488 70.6934 42.4203 68.8524 41.3635C67.0201 40.3067 65.5712 38.7769 64.5059 36.774C63.449 34.7712 62.9206 32.3465 62.9206 29.4999C62.9206 26.6448 63.4576 24.2158 64.5314 22.213C65.6053 20.2101 67.0627 18.6845 68.9036 17.6363C70.7445 16.5794 72.8155 16.051 75.1167 16.051C76.6337 16.051 78.0399 16.2641 79.3354 16.6902C80.6394 17.1164 81.7942 17.7385 82.7999 18.5567C83.8056 19.3664 84.6238 20.3593 85.2544 21.5354C85.8936 22.7115 86.3027 24.0581 86.4817 25.5752Z" fill="black"/>
<path d="M94.4718 42.5908H88.5399L97.5783 16.409H104.712L113.737 42.5908H107.806L101.247 22.3919H101.043L94.4718 42.5908ZM94.101 32.2996H108.112V36.6206H94.101V32.2996Z" fill="black"/>
</svg>
